<svg xmlns="http://www.w3.org/2000/svg" width="600" height="600">
  <path fill="#222" d="M0 0h600v600H0z"/>
  <circle cx="299.529" cy="299.628" r="50.167" fill="#00D8FF"/>
  <path fill="none" stroke="#00D8FF" stroke-width="24" stroke-miterlimit="10" d="M299.53 197.628c67.355 0 129.927 9.665 177.106 25.907 56.844 19.57 91.794 49.233 91.794 76.093 0 27.99-37.04 59.503-98.083 79.728-46.15 15.29-106.88 23.272-170.818 23.272-65.558 0-127.63-7.492-174.29-23.44-59.05-20.183-94.615-52.104-94.615-79.56 0-26.642 33.37-56.076 89.415-75.616 47.356-16.51 111.473-26.384 179.487-26.384z"/>
  <path fill="none" stroke="#00D8FF" stroke-width="24" stroke-miterlimit="10" d="M210.736 248.922c33.65-58.348 73.28-107.724 110.92-140.48 45.35-39.466 88.507-54.923 111.775-41.505 24.25 13.983 33.046 61.814 20.07 124.796-9.81 47.618-33.233 104.212-65.175 159.6-32.75 56.79-70.25 106.82-107.377 139.273-46.98 41.068-92.4 55.93-116.185 42.213-23.08-13.31-31.905-56.925-20.833-115.237 9.354-49.27 32.83-109.745 66.81-168.664z"/>
  <path fill="none" stroke="#00D8FF" stroke-width="24" stroke-miterlimit="10" d="M210.82 351.482c-33.745-58.292-56.73-117.287-66.31-166.255-11.545-59-3.383-104.11 19.863-117.566 24.224-14.02 70.055 2.248 118.14 44.94 36.356 32.28 73.688 80.84 105.723 136.177 32.844 56.733 57.46 114.21 67.036 162.582 12.117 61.212 2.31 107.983-21.453 121.74-23.06 13.347-65.25-.785-110.24-39.5-38.016-32.71-78.685-83.253-112.76-142.115z"/>
</svg>
